<?xml version="1.0" standalone="no"?>
<!DOCTYPE svg PUBLIC "-//W3C//DTD SVG 1.1//EN" "http://www.w3.org/Graphics/SVG/1.1/DTD/svg11.dtd" >
<svg>
<metadata>
Created by FontForge 20090622 at Mon Jun 11 23:32:17 2012
 By ffonts
Basee sur la une de La Tribune de 1918 de Sherbrooke 
claudeserieux@gmail.com
</metadata>
<defs>
<font id="LaTribuneCP" horiz-adv-x="244" >
  <font-face 
    font-family="LaTribuneCP"
    font-weight="500"
    font-stretch="normal"
    units-per-em="1000"
    panose-1="2 0 6 3 0 0 0 0 0 0"
    ascent="800"
    descent="-200"
    x-height="534"
    cap-height="697"
    bbox="8 -190 450 835"
    underline-thickness="50"
    underline-position="-100"
    unicode-range="U+0020-U+0153"
  />
<missing-glyph horiz-adv-x="500" 
d="M50 0v533h400v-533h-400zM100 50h300v433h-300v-433z" />
    <glyph glyph-name=".notdef" horiz-adv-x="500" 
d="M50 0v533h400v-533h-400zM100 50h300v433h-300v-433z" />
    <glyph glyph-name="uni0000" horiz-adv-x="190" 
 />
    <glyph glyph-name="uni0000" horiz-adv-x="190" 
 />
    <glyph glyph-name="space" unicode=" " horiz-adv-x="120" 
 />
    <glyph glyph-name="exclam" unicode="!" horiz-adv-x="150" 
d="M119 663v-244l-29 -255h-30l-29 255v244c0 24 20 44 44 44s44 -20 44 -44zM119 35c0 -24 -20 -44 -44 -44s-44 20 -44 44v55c0 24 20 44 44 44s44 -20 44 -44v-55z" />
    <glyph glyph-name="quotedbl" unicode="&#x22;" horiz-adv-x="256" 
d="M42 606v62c0 20 17 37 37 37s37 -17 37 -37v-103c0 -40 -48 -115 -74 -115c-6 0 -11 5 -11 11c0 23 42 39 42 73c0 24 -31 48 -31 72zM151 606v62c0 20 17 37 37 37s37 -17 37 -37v-103c0 -40 -48 -115 -74 -115c-6 0 -24 5 -24 11c0 23 55 39 55 73c0 24 -31 48 -31 72z
" />
    <glyph glyph-name="numbersign" unicode="#" horiz-adv-x="315" 
d="M185 253l-25 -182h-24l26 182h-54l-29 -182h-25l31 182h-44l4 21h42l13 73h-43l3 23h42l31 211h22l-30 -211h55l30 211h22l-28 -211h47l-4 -23h-49l-10 -73h47l-4 -21h-46zM111 274h55l11 73h-53z" />
    <glyph glyph-name="dollar" unicode="$" horiz-adv-x="298" 
d="M130 722h32v-17c48 -8 91 -43 91 -84v-102h-66v129c0 14 -12 27 -25 32v-231c46 -52 105 -107 105 -177v-192c0 -48 -42 -86 -105 -90v-74h-32v75c-62 7 -93 44 -93 89v132h70v-152c0 -16 10 -31 23 -39v331c-45 50 -99 103 -99 159v110c0 44 47 80 99 85v16zM162 315
v-298c15 6 30 23 30 43v185c0 23 -12 46 -30 70zM130 490v186c-10 -6 -19 -16 -19 -28v-104c0 -18 7 -36 19 -54z" />
    <glyph glyph-name="percent" unicode="%" horiz-adv-x="328" 
d="M58 0l204 696h16l-204 -696h-16zM103 645c0 12 -6 23 -18 23s-18 -11 -18 -23v-283c0 -12 6 -24 18 -24s18 12 18 24v283zM85 682c28 0 54 -18 54 -46v-266c0 -28 -26 -46 -54 -46s-54 18 -54 46v266c0 28 26 46 54 46zM261 311c0 12 -6 23 -18 23s-18 -11 -18 -23v-283
c0 -12 6 -24 18 -24s18 12 18 24v283zM243 348c28 0 54 -18 54 -46v-266c0 -28 -26 -46 -54 -46s-54 18 -54 46v266c0 28 26 46 54 46z" />
    <glyph glyph-name="ampersand" unicode="&#x26;" horiz-adv-x="347" 
d="M305 274c-6 -65 -23 -138 -52 -193l42 -81h-75l-10 23c-22 -20 -48 -33 -79 -33c-49 0 -100 31 -100 78v237c1 57 44 91 76 125c-30 45 -58 94 -58 155c0 60 44 112 104 112c55 0 90 -50 90 -105c0 -54 -27 -103 -60 -142c28 -43 54 -94 54 -167v-130c15 40 30 80 30 134
c0 12 -11 25 -19 25v5h78v-5c-10 0 -19 -13 -21 -38zM131 393c-15 -16 -25 -29 -25 -38v-274c1 -22 18 -47 40 -47c14 0 30 11 45 31c-10 12 -17 34 -17 56v163c0 38 -20 73 -43 109zM155 491c10 15 30 59 30 100c0 28 -9 63 -35 63c-24 0 -36 -31 -36 -57
c0 -44 20 -74 41 -106z" />
    <glyph glyph-name="quotesingle" unicode="'" horiz-adv-x="147" 
d="M42 606v62c0 20 17 37 37 37s37 -17 37 -37v-103c0 -40 -48 -115 -74 -115c-6 0 -11 5 -11 11c0 23 42 39 42 73c0 24 -31 48 -31 72z" />
    <glyph glyph-name="parenleft" unicode="(" horiz-adv-x="200" 
d="M168 704c-53 -77 -63 -220 -63 -364c0 -145 4 -278 64 -365l-11 -7c-92 88 -108 221 -108 372s20 280 108 373z" />
    <glyph glyph-name="parenright" unicode=")" horiz-adv-x="200" 
d="M32 704l10 9c88 -93 108 -222 108 -373s-16 -284 -108 -372l-11 7c60 87 64 220 64 365c0 144 -10 287 -63 364z" />
    <glyph glyph-name="asterisk" unicode="*" horiz-adv-x="182" 
d="M37 502l35 34h-41v16h41l-35 35l6 16l40 -40v81h16v-81l40 41l6 -17l-35 -35h41v-16h-41l35 -35l-6 -17l-40 41v-81h-16v81l-40 -40z" />
    <glyph glyph-name="comma" unicode="," horiz-adv-x="147" 
d="M42 43v62c0 20 17 37 37 37s37 -17 37 -37v-103c0 -40 -48 -115 -74 -115c-6 0 -11 5 -11 11c0 23 42 39 42 73c0 24 -31 48 -31 72z" />
    <glyph glyph-name="hyphen" unicode="-" horiz-adv-x="198" 
d="M31 331h136v-54h-136v54z" />
    <glyph glyph-name="period" unicode="." horiz-adv-x="136" 
d="M105 27c0 -20 -17 -37 -37 -37s-37 17 -37 37v80c0 20 17 37 37 37s37 -17 37 -37v-80z" />
    <glyph glyph-name="slash" unicode="/" horiz-adv-x="328" 
d="M58 0l204 696h16l-204 -696h-16z" />
    <glyph glyph-name="zero" unicode="0" horiz-adv-x="280" 
d="M177 632c0 23 -14 46 -37 46s-37 -23 -37 -46v-567c0 -23 14 -46 37 -46s37 23 37 46v567zM140 707c56 0 109 -36 109 -93v-531c0 -57 -53 -93 -109 -93s-109 36 -109 93v531c0 57 53 93 109 93z" />
    <glyph glyph-name="one" unicode="1" horiz-adv-x="163" 
d="M122 697v-641c0 -34 9 -51 21 -51v-5h-114v5c12 0 21 17 21 51v529c0 34 -12 56 -30 56v9c24 1 72 27 72 47h30z" />
    <glyph glyph-name="two" unicode="2" horiz-adv-x="290" 
d="M254 440c-1 -92 -177 -237 -179 -316v-40h132c17 1 39 13 41 34h11v-118h-228v144c0 83 150 267 151 330v158c0 23 -14 46 -37 46s-37 -23 -37 -46v-156h-72v138c0 57 53 93 109 93s109 -36 109 -93v-174z" />
    <glyph glyph-name="three" unicode="3" horiz-adv-x="280" 
d="M249 485c0 -34 -39 -67 -66 -79c30 -4 66 -31 66 -64v-259c0 -57 -53 -93 -109 -93s-109 36 -109 93v161h72v-179c0 -23 14 -46 37 -46s37 23 37 46v276c0 38 -52 45 -91 45v39c39 0 89 8 91 54v153c0 23 -14 46 -37 46s-37 -23 -37 -46v-123h-72v105c0 57 53 93 109 93
s109 -36 109 -93v-129z" />
    <glyph glyph-name="four" unicode="4" horiz-adv-x="294" 
d="M239 212h24v-73h-24v-83c0 -34 9 -51 21 -51v-5h-114v5c12 0 21 17 21 51v83h-136v73l156 485h52v-485zM167 212v318l-102 -318h102z" />
    <glyph glyph-name="five" unicode="5" horiz-adv-x="280" 
d="M248 677c0 -9.05566 -46.9902 -76 -98 -76c-34.7363 0 -52.8965 6.49609 -70.46 16.874l-13.3682 -138.469c20.6631 15.4121 46.1367 24.5947 73.8281 24.5947c56 0 109 -36 109 -93v-328c0 -57 -53 -93 -109 -93s-109 36 -109 93v156h72v-174c0 -23 14 -46 37 -46
s37 23 37 46v364c0 23 -14 46 -37 46c-52 0 -73 -58 -89 -100l-30 4l31.667 266.373c-5.33594 10.1982 -7.66699 21.3701 -7.66699 32.627c0 11 10 19 21 19c21 0 37 -29 88 -29c33 0 63.9707 24 81 24c8 0 13 -6 13 -15z" />
    <glyph glyph-name="six" unicode="6" horiz-adv-x="280" 
d="M140 452c-23 0 -37 -23 -37 -46v-341c0 -23 14 -46 37 -46s37 23 37 46v341c0 23 -14 46 -37 46zM103 475c0 0 22 6 37 6c56 0 109 -36 109 -93v-305c0 -57 -53 -93 -109 -93s-109 36 -109 93v490c1 77 46 124 118 124h83v-33h-63c-33 0 -66 -35 -66 -73v-116z" />
    <glyph glyph-name="seven" unicode="7" horiz-adv-x="300" 
d="M31 697h238v-87c-1 -196 -93 -300 -93 -498c0 -44 10 -112 10 -112h-90s-6 68 -6 112c0 150 128 318 140 506h-134c-28 0 -53 -15 -56 -38h-9v117z" />
    <glyph glyph-name="eight" unicode="8" horiz-adv-x="280" 
d="M31 321c0 38 32 62 59 76c-31 32 -59 67 -59 103v114c0 57 53 93 109 93s109 -36 109 -93v-113c0 -42 -27 -72 -60 -85c32 -32 60 -65 60 -102v-231c0 -57 -53 -93 -109 -93s-109 36 -109 93v238zM118 369c-8 -7 -14 -18 -15 -36v-268c0 -23 14 -46 37 -46s37 23 37 46
v223c0 23 -27 53 -59 81zM161 443c11 9 15 24 16 39v150c0 23 -14 46 -37 46s-37 -23 -37 -46v-98c0 -29 27 -60 58 -91z" />
    <glyph glyph-name="nine" unicode="9" horiz-adv-x="280" 
d="M140 244c23 0 37 23 37 46v341c0 23 -14 46 -37 46s-37 -23 -37 -46v-341c0 -23 14 -46 37 -46zM177 221c0 0 -22 -6 -37 -6c-56 0 -109 36 -109 93v305c0 57 53 93 109 93s109 -36 109 -93v-490c-1 -77 -46 -124 -118 -124h-83v33h63c33 0 66 35 66 73v116z" />
    <glyph glyph-name="colon" unicode=":" horiz-adv-x="136" 
d="M105 27c0 -20 -17 -37 -37 -37s-37 17 -37 37v80c0 20 17 37 37 37s37 -17 37 -37v-80zM105 251c0 -20 -17 -37 -37 -37s-37 17 -37 37v80c0 20 17 37 37 37s37 -17 37 -37v-80z" />
    <glyph glyph-name="semicolon" unicode=";" horiz-adv-x="147" 
d="M42 43v62c0 20 17 37 37 37s37 -17 37 -37v-103c0 -40 -48 -115 -74 -115c-6 0 -11 5 -11 11c0 23 42 39 42 73c0 24 -31 48 -31 72zM116 251c0 -20 -17 -37 -37 -37s-37 17 -37 37v80c0 20 17 37 37 37s37 -17 37 -37v-80z" />
    <glyph glyph-name="less" unicode="&#x3c;" horiz-adv-x="130" 
d="M89 466h10l-28 -200l28 -201h-10l-58 201z" />
    <glyph glyph-name="equal" unicode="=" horiz-adv-x="279" 
d="M248 366v-26h-217v26h217zM248 299v-27h-217v27h217z" />
    <glyph glyph-name="greater" unicode="&#x3e;" horiz-adv-x="130" 
d="M60 266l-29 200h11l57 -200l-57 -201h-11z" />
    <glyph glyph-name="question" unicode="?" horiz-adv-x="266" 
d="M91 35v55c0 24 20 44 44 44s44 -20 44 -44v-55c0 -24 -20 -44 -44 -44s-44 20 -44 44zM164 524v111c0 23 -11 46 -33 46s-33 -23 -33 -46v-101h-67v80c0 57 48 93 102 93s102 -36 102 -93v-124c0 -61 -77 -166 -80 -215v-106h-40v114c0 32 48 192 49 241zM31 534z" />
    <glyph glyph-name="A" unicode="A" horiz-adv-x="287" 
d="M70 46c0 -11 6 -41 17 -41v-5h-77v5c7 0 22 29 25 46l96 646h46l78 -646c3 -18 12 -46 22 -46v-5h-111v5c8 0 16 19 16 33l-17 149h-75zM94 219h67l-30 260z" />
    <glyph glyph-name="B" unicode="B" horiz-adv-x="285" 
d="M148 390h-45v-357h45c19 0 30 20 30 36v284c0 16 -11 37 -30 37zM148 419c19 0 30 20 30 36v177c0 16 -11 36 -30 36h-45v-249h45zM165 406c58 -5 89 -32 89 -87v-232c0 -55 -38 -87 -89 -87h-155v5c12 0 21 17 21 51v585c0 34 -9 51 -21 51v5h147c51 0 89 -32 89 -87
v-133c0 -55 -23 -63 -81 -71z" />
    <glyph glyph-name="C" unicode="C" horiz-adv-x="273" 
d="M231 575c-16 46 -39 103 -87 103c-23 0 -43 -15 -44 -39v-550c0 -31 14 -67 45 -67c33 0 50 34 52 67v154h45v-158c-1 -58 -49 -97 -105 -97c-72 0 -106 40 -106 97v525c0 60 59 96 119 96c35 0 54 -5 89 -9v-122h-8z" />
    <glyph glyph-name="D" unicode="D" horiz-adv-x="285" 
d="M178 69v563c0 16 -11 36 -30 36h-45v-635h45c19 0 30 20 30 36zM254 610v-523c0 -55 -38 -87 -89 -87h-155v5c12 0 21 17 21 51v585c0 34 -9 51 -21 51v5h155c51 0 89 -32 89 -87z" />
    <glyph glyph-name="E" unicode="E" horiz-adv-x="258" 
d="M221 697v-121h-13c0 45 -52 96 -105 96v-268h64c14 0 25 11 25 25h4v-88h-4c0 14 -11 25 -25 25h-64v-342c62 0 111 52 111 102h13v-126h-217v5c12 0 21 17 21 51v585c0 34 -9 51 -21 51v5h211z" />
    <glyph glyph-name="F" unicode="F" horiz-adv-x="252" 
d="M124 0h-114v5c12 0 21 17 21 51v585c0 34 -9 51 -21 51v5h211v-121h-13c0 45 -52 96 -105 96v-268h64c14 0 25 11 25 25h4v-88h-4c0 14 -11 25 -25 25h-64v-310c0 -34 9 -51 21 -51v-5z" />
    <glyph glyph-name="G" unicode="G" horiz-adv-x="279" 
d="M178 25v365c0 34 -9 51 -21 51v5h112v-5c-12 0 -21 -17 -21 -51v-334c0 -34 9 -51 21 -51v-5h-133c-58 0 -105 35 -105 92v513c0 57 59 92 109 92h103v-110h-13c-15 41 -48 85 -90 85c-23 0 -37 -23 -37 -46v-555c0 -23 14 -46 37 -46h38z" />
    <glyph glyph-name="H" unicode="H" horiz-adv-x="280" 
d="M31 641c0 34 -9 51 -21 51v5h114v-5c-12 0 -21 -17 -21 -51v-225h74v225c0 34 -9 51 -21 51v5h114v-5c-12 0 -21 -17 -21 -51v-585c0 -34 9 -51 21 -51v-5h-114v5c12 0 21 17 21 51v330h-74v-330c0 -34 9 -51 21 -51v-5h-114v5c12 0 21 17 21 51v585z" />
    <glyph glyph-name="I" unicode="I" horiz-adv-x="134" 
d="M31 641c0 34 -9 51 -21 51v5h114v-5c-12 0 -21 -17 -21 -51v-585c0 -34 9 -51 21 -51v-5h-114v5c12 0 21 17 21 51v585z" />
    <glyph glyph-name="J" unicode="J" horiz-adv-x="259" 
d="M228 71c0 -43 -49 -81 -98 -81c-50 0 -99 38 -99 81v118h71v-122c0 -18 13 -33 27 -33s27 15 27 33v574c0 34 -9 51 -21 51v5h114v-5c-12 0 -21 -17 -21 -51v-570z" />
    <glyph glyph-name="K" unicode="K" horiz-adv-x="308" 
d="M272 60c5 -34 10 -55 24 -55v-5h-113v5c9 0 15 18 15 37c0 7 -1 15 -2 24l-56 370l-31 -49v-331c0 -34 9 -51 21 -51v-5h-120v5c12 0 21 17 21 51v585c0 34 -9 51 -21 51v5h120v-5c-12 0 -21 -17 -21 -51v-205l98 208c4.76367 10.1113 6 24 6 30c0 11 -8 18 -15 18v5h100
v-5c-9 0 -24 -11 -44 -47l-57 -102z" />
    <glyph glyph-name="L" unicode="L" horiz-adv-x="253" 
d="M31 641c0 34 -9 51 -21 51v5h114v-5c-12 0 -21 -17 -21 -51v-617c62 0 106 49 106 119h13v-143h-212v5c12 0 21 17 21 51v585z" />
    <glyph glyph-name="M" unicode="M" horiz-adv-x="334" 
d="M227 661c0 26 -8 31 -15 31v5h112v-5c-12 0 -21 -17 -21 -51v-585c0 -34 9 -51 21 -51v-5h-109v5c12 0 21 17 21 51v427l-82 -483h-12l-78 483v-427c0 -34 9 -51 21 -51v-5h-75v5c12 0 21 17 21 51v585c0 34 -9 51 -21 51v5h116v-5c-9 0 -17 -14 -17 -38
c0 -6 57 -354 57 -354s61 357 61 361z" />
    <glyph glyph-name="N" unicode="N" horiz-adv-x="279" 
d="M269 692c-12 0 -21 -17 -21 -51v-641h-47l-136 520v-464c0 -34 9 -51 21 -51v-5h-75v5c12 0 21 17 21 51v593c0 21 -13 43 -22 43v5h114v-5c-5 0 -13 -11 -13 -20c0 -11 1 -21 3 -27l101 -364v360c0 34 -9 51 -21 51v5h75v-5z" />
    <glyph glyph-name="O" unicode="O" horiz-adv-x="280" 
d="M177 635c0 23 -14 46 -37 46s-37 -23 -37 -46v-573c0 -23 14 -46 37 -46s37 23 37 46v573zM140 707c56 0 109 -36 109 -93v-531c0 -57 -53 -93 -109 -93s-109 36 -109 93v531c0 57 53 93 109 93z" />
    <glyph glyph-name="P" unicode="P" horiz-adv-x="266" 
d="M137 358c19 0 30 20 30 36v238c0 16 -11 36 -30 36h-42v-310h42zM146 697c51 0 89 -32 89 -87v-194c0 -55 -38 -87 -89 -87h-51v-273c0 -34 9 -51 21 -51v-5h-106v5c12 0 21 17 21 51v585c0 34 -9 51 -21 51v5h136z" />
    <glyph glyph-name="Q" unicode="Q" horiz-adv-x="280" 
d="M140 707c56 0 109 -36 109 -93v-531c0 -45 -33 -77 -75 -88c0 -39 6 -86 34 -86c16 0 22 7 36 7c8 0 12 -7 12 -16c0 -22 -39 -30 -68 -30c-61 0 -77 64 -82 124c-42 11 -75 44 -75 89v531c0 57 53 93 109 93zM177 635c0 23 -14 46 -37 46s-37 -23 -37 -46v-573
c0 -23 14 -46 37 -46s37 23 37 46v573z" />
    <glyph glyph-name="R" unicode="R" horiz-adv-x="283" 
d="M149 697c51 0 89 -32 89 -87v-147c0 -36 -16 -62 -42 -76l54 -340c5 -29 11 -42 23 -42v-5h-109v5c7 0 14 10 14 31c0 6 -33 204 -55 340h-28v-320c0 -34 9 -51 21 -51v-5h-106v5c12 0 21 17 21 51v585c0 34 -9 51 -21 51v5h139zM140 668h-45v-264h45c19 0 30 20 30 36
v192c0 16 -11 36 -30 36z" />
    <glyph glyph-name="S" unicode="S" horiz-adv-x="282" 
d="M169 648c0 19 -13 34 -29 34s-29 -15 -29 -34v-104c0 -84 140 -159 140 -272v-192c0 -50 -48 -90 -107 -90s-107 40 -107 90v132h70v-152c0 -25 15 -45 34 -45s34 20 34 45v185c0 83 -144 169 -144 266v110c0 47 46 86 102 86s102 -39 102 -86v-111h-66v138z" />
    <glyph glyph-name="T" unicode="T" horiz-adv-x="306" 
d="M275 697v-155h-13c0 46 -38 135 -73 135v-621c0 -34 9 -51 21 -51v-5h-114v5c12 0 21 17 21 51v621c-35 0 -73 -89 -73 -135h-13v155h244z" />
    <glyph glyph-name="U" unicode="U" horiz-adv-x="330" 
d="M299 697v-5c-12 0 -21 -17 -21 -51v-552c0 -51 -24 -99 -113 -99c-84 0 -113 38 -113 99v552c0 34 -9 51 -21 51v5h114v-5c-12 0 -21 -17 -21 -51v-552c1 -35 24 -61 57 -61s57 27 57 61v552c0 34 -9 51 -21 51v5h82z" />
    <glyph glyph-name="V" unicode="V" horiz-adv-x="287" 
d="M156 256l61 390c0 3 1 10 1 13c0 17 -8 33 -18 33v5h77v-5c-7 0 -22 -29 -25 -46l-96 -646h-46l-78 646c-3 18 -12 46 -22 46v5h111v-5c-7 0 -15 -12 -15 -31v-9z" />
    <glyph glyph-name="W" unicode="W" horiz-adv-x="398" 
d="M285 283l39 325c2 15 3 28 3 38c0 37 -11 46 -20 46v5h81v-5c-14 0 -23 -28 -27 -62l-76 -630h-37l-50 409l-49 -409h-37l-76 630c-5 43 -14 62 -26 62v5h114v-5c-12 0 -17 -11 -17 -30c0 -7 1 -16 2 -25l43 -354l50 414h33z" />
    <glyph glyph-name="X" unicode="X" horiz-adv-x="301" 
d="M205 660c0 14 -11.1973 32 -20 32v5h90v-5c-12 0 -32 -29 -41 -62l-60.6299 -220.537l80.6299 -334.463c8 -33 23 -69.8574 37 -70v-5h-118v5c8.90137 0 16.0381 14.8574 16.0381 36c0 7.35938 -1.03809 16 -3.03809 25l-50.167 207.641l-47.833 -173.641
c-3 -10 -7.77246 -43.7051 -7.77246 -50c0 -26.1719 11.0996 -45 20.7725 -45v-5h-91v5c17 0.142578 27 40 36 73l72.9355 266l-71.9355 299c-8 33 -11 49 -23 49v5h102v-5c-9 0 -11.8672 -7.5625 -11.8672 -22c0 -9.03223 1.86719 -21 4.86719 -35l34.29 -192.52
l46.71 166.52c4.45312 15.873 5 36.9521 5 51z" />
    <glyph glyph-name="Y" unicode="Y" horiz-adv-x="287" 
d="M216 625c2.07617 9.67578 2.95801 18.7031 2.95801 27.002c0 34 -21.0996 40 -30.958 40v5h89v-5c-17 0 -20 -18 -29 -51l-71 -273v-312c0 -34 9 -51 21 -51v-5h-114v5c12 0 21 17 21 51v312l-68 268c-8 33 -18 56 -27 56v5h114v-5
c-9.44434 0 -20.9219 -16.1055 -20.9219 -39.001c0 -6.19629 0.719727 -12.8896 2.55957 -19.8955l59.3623 -234.105z" />
    <glyph glyph-name="Z" unicode="Z" horiz-adv-x="304" 
d="M37 572v125h222v-41l-151 -632c58 0 136 36 158 102h7v-126h-242v46l158 630h-24c-51 0 -96 -48 -120 -104h-8z" />
    <glyph glyph-name="a" unicode="a" 
d="M149 349c-38 -17 -62 -45 -63 -81v-214c0 -20 19 -33 40 -33h23v328zM149 381v100c0 21 -11 39 -30 39s-29 -18 -29 -39v-65h-64v59c0 46 48 68 93 68s94 -22 94 -68v-419c0 -34 9 -51 21 -51v-5h-155c-33 0 -58 32 -58 66v193c0 64 72 102 128 122z" />
    <glyph glyph-name="b" unicode="b" horiz-adv-x="242" 
d="M95 697v-163h48c40 0 78 -25 78 -69v-396c0 -33 -27 -69 -78 -69h-133v5c12 0 21 17 21 51v585c0 34 -9 51 -21 51v5h85zM95 25h23c21 0 40 19 40 40v404c0 21 -19 40 -40 40h-23v-484z" />
    <glyph glyph-name="c" unicode="c" 
d="M223 192v-117c0 -47 -45 -85 -101 -85s-101 38 -101 85v384c0 47 45 85 101 85s101 -38 101 -85v-98h-69v117c0 22 -12 39 -32 39s-32 -17 -32 -39v-422c0 -22 12 -39 32 -39s32 17 32 39v136h69z" />
    <glyph glyph-name="d" unicode="d" horiz-adv-x="242" 
d="M211 697v-641c0 -34 9 -51 21 -51v-5h-133c-51 0 -78 36 -78 69v396c0 44 38 69 78 69h48v107c0 34 -9 51 -21 51v5h85zM147 25v484h-23c-21 0 -40 -19 -40 -40v-404c0 -21 19 -40 40 -40h23z" />
    <glyph glyph-name="e" unicode="e" horiz-adv-x="242" 
d="M153 478c0 22 -12 39 -32 39s-32 -17 -32 -39v-181h64v181zM89 263v-207c0 -22 12 -39 32 -39s32 17 32 39v116h68v-94c0 -56 -48 -88 -100 -88s-100 32 -100 88v378c0 56 48 88 100 88s100 -32 100 -88v-193h-132z" />
    <glyph glyph-name="f" unicode="f" horiz-adv-x="143" 
d="M10 534h29v115c0 34 23 52 52 52c17 0 26 -6 42 -10v-74c-10 8 -19 15 -33 15c-20 0 -31 -21 -31 -41c0 -29 29 -57 46 -57h18v-32h-31v-446c0 -34 9 -51 21 -51v-5h-105v5c12 0 21 17 21 51v446h-29v32z" />
    <glyph glyph-name="g" unicode="g" horiz-adv-x="250" 
d="M219 -89c0 -49 -50 -77 -99 -77c-47 0 -99 18 -99 68v36h66v-43c0 -19 15 -35 34 -35s34 16 34 35v105h-53c-51 0 -78 36 -78 69v396c0 44 38 69 78 69h138v-5c-12 0 -21 -17 -21 -51v-567zM155 25v484h-28c-21 0 -40 -19 -40 -40v-404c0 -21 19 -40 40 -40h28z" />
    <glyph glyph-name="h" unicode="h" horiz-adv-x="260" 
d="M229 56c0 -34 9 -51 21 -51v-5h-106v5c12 0 21 17 21 51v413c0 21 -19 40 -40 40h-30v-453c0 -34 9 -51 21 -51v-5h-106v5c12 0 21 17 21 51v585c0 34 -9 51 -21 51v5h85v-163h56c51 0 78 -36 78 -69v-409z" />
    <glyph glyph-name="i" unicode="i" horiz-adv-x="126" 
d="M95 619c0 -18 -14 -32 -32 -32s-32 14 -32 32v46c0 18 14 32 32 32s32 -14 32 -32v-46zM95 534v-478c0 -34 9 -51 21 -51v-5h-106v5c12 0 21 17 21 51v422c0 34 -9 51 -21 51v5h85z" />
    <glyph glyph-name="j" unicode="j" horiz-adv-x="116" 
d="M95 -123c0 -37 -53 -67 -70 -67c-6 0 -12 4 -12 10c0 10 18 18 18 67v591c0 34 -9 51 -21 51v5h85v-657zM95 619c0 -18 -14 -32 -32 -32s-32 14 -32 32v46c0 18 14 32 32 32s32 -14 32 -32v-46z" />
    <glyph glyph-name="k" unicode="k" horiz-adv-x="277" 
d="M236 74c7 -25 19 -68.8574 31 -69v-5h-111v5c7.84766 0 14.5 9.40918 14.5 26c0 8.77832 -1.71973 19.5674 -6.06836 32.0361l-57.3154 218.433l-13.1162 -27.4688v-198c0 -34 9 -51 21 -51v-5h-105v5c12 0 21 17 21 51v585c0 34 -9 51 -21 51v5h84v-366l65 143
c3 7 5 14 5 21c0 19 -11 34 -20 34v5h105v-5c-12 0 -38 -24 -53 -56l-42 -90z" />
    <glyph glyph-name="l" unicode="l" horiz-adv-x="125" 
d="M94 697v-641c0 -34 9 -51 21 -51v-5h-105v5c12 0 21 17 21 51v585c0 34 -9 51 -21 51v5h84z" />
    <glyph glyph-name="m" unicode="m" horiz-adv-x="381" 
d="M275 534c38 0 75 -30 75 -68v-410c0 -34 9 -51 21 -51v-5h-106v5c12 0 21 17 21 51v415c0 25 -19 38 -44 38h-20v-453c0 -34 9 -51 21 -51v-5h-105v5c12 0 21 17 21 51v415c0 25 -19 38 -44 38h-20v-453c0 -34 9 -51 21 -51v-5h-106v5c12 0 21 17 21 51v422
c0 34 -9 51 -21 51v5h265z" />
    <glyph glyph-name="n" unicode="n" horiz-adv-x="254" 
d="M10 534h138c38 0 75 -30 75 -68v-410c0 -34 9 -51 21 -51v-5h-106v5c12 0 21 17 21 51v415c0 25 -19 38 -44 38h-20v-453c0 -34 9 -51 21 -51v-5h-106v5c12 0 21 17 21 51v422c0 34 -9 51 -21 51v5z" />
    <glyph glyph-name="o" unicode="o" 
d="M154 478c0 22 -12 39 -32 39s-32 -17 -32 -39v-422c0 -22 12 -39 32 -39s32 17 32 39v422zM21 75v384c0 47 45 85 101 85s101 -38 101 -85v-384c0 -47 -45 -85 -101 -85s-101 38 -101 85z" />
    <glyph glyph-name="p" unicode="p" horiz-adv-x="242" 
d="M116 -163h-106v5c12 0 21 17 21 51v585c0 34 -9 51 -21 51v5h133c51 0 78 -36 78 -69v-396c0 -44 -38 -69 -78 -69h-48v-107c0 -34 9 -51 21 -51v-5zM95 509v-484h23c21 0 40 19 40 40v404c0 21 -19 40 -40 40h-23z" />
    <glyph glyph-name="q" unicode="q" horiz-adv-x="231" 
d="M115 -163v5c12 0 21 17 21 51v107h-48c-40 0 -78 25 -78 69v396c0 33 27 69 78 69h133v-5c-12 0 -21 -17 -21 -51v-585c0 -34 9 -51 21 -51v-5h-106zM136 509h-23c-21 0 -40 -19 -40 -40v-404c0 -21 19 -40 40 -40h23v484z" />
    <glyph glyph-name="r" unicode="r" horiz-adv-x="205" 
d="M122 534c34 0 62 -25 62 -56v-109h-57v117c0 12 -12 26 -32 26v-456c0 -34 9 -51 21 -51v-5h-106v5c12 0 21 17 21 51v422c0 34 -9 51 -21 51v5h112z" />
    <glyph glyph-name="s" unicode="s" horiz-adv-x="238" 
d="M89 56c0 -22 14 -39 31 -39s31 17 31 39v136c0 52 -130 137 -130 204v63c0 52 42 85 96 85c55 0 90 -29 90 -75v-68h-62v83c0 18 -13 33 -29 33s-29 -15 -29 -33v-59c2 -80 130 -118 130 -238v-123c0 -43 -50 -74 -98 -74s-97 31 -97 74v128h67v-136z" />
    <glyph glyph-name="t" unicode="t" horiz-adv-x="163" 
d="M114 671v-137h39v-55c-7 13 -19 17 -38 17v-440c0 -24 20 -38 31 -38c-9 -22 -27 -28 -48 -28c-36 0 -51 19 -51 56v450h-37v38h37v104c23.333 5.30176 43.667 16.9658 67 33z" />
    <glyph glyph-name="u" unicode="u" horiz-adv-x="254" 
d="M223 534v-478c0 -34 9 -51 21 -51v-5h-138c-38 0 -75 30 -75 68v410c0 34 -9 51 -21 51v5h85v-471c0 -25 19 -38 44 -38h20v453c0 34 -9 51 -21 51v5h85z" />
    <glyph glyph-name="v" unicode="v" horiz-adv-x="273" 
d="M246 501l-87 -501h-42l-87 500c-3 20 -11 29 -20 29v5h114v-5c-10 0 -22 -13 -22 -37c0 -5 1 -10 2 -15l51 -294l51 293c1 6 1 11 1 16c0 24 -6 37 -16 37v5h72v-5c-9 0 -14 -9 -17 -28z" />
    <glyph glyph-name="w" unicode="w" horiz-adv-x="349" 
d="M283 462c1 8 1 15 1 21c0 31 -10 46 -20 46v5h75v-5c-9 0 -18 -11 -20 -32l-56 -497h-38l-48 301l-47 -301h-38l-62 498c-3 21 -11 31 -20 31v5h108v-5c-9 0 -16 -9 -16 -29c0 -6 1 -13 2 -21l30 -242l45 297h31l45 -297z" />
    <glyph glyph-name="x" unicode="x" horiz-adv-x="292" 
d="M175 57l-41.8789 163l-49.1211 -162c-3 -10 -3 -20 -3 -28c0 -14 5 -25 16 -25v-5h-87v5c10 0 23 18 30 41l75.626 242l-48.626 189c-7 29 -22 52 -34 52v5h115v-5c-7.32715 0 -10.6211 -9.50586 -10.6211 -24c0 -8.05176 1.10938 -17.6426 3.62109 -28l26.5742 -104
l32.4258 103c3 10 3 20 3 28c0 14 -5 25 -16 25v5h85v-5c-10 0 -23 -18 -30 -41l-57.0146 -181l63.0146 -250c7 -29 22 -52 34 -52v-5h-114v5c7.32715 0 10.6211 9.50586 10.6211 24c0 8.05176 -1.10938 17.6436 -3.62109 28z" />
    <glyph glyph-name="y" unicode="y" horiz-adv-x="273" 
d="M117 0l-87 500c-3 20 -11 29 -20 29v5h114v-5c-10 0 -22 -13 -22 -37c0 -5 1 -10 2 -15l51 -294l51 293c1 6 1 11 1 16c0 24 -6 37 -16 37v5h72v-5c-9 0 -14 -9 -17 -28l-99 -603c-7 -42 -21.9893 -70 -69 -70c-32 0 -57 15 -57 49v30h44v-27c0 -12 4 -26 23 -26
c26 0 35 59 35 103z" />
    <glyph glyph-name="z" unicode="z" horiz-adv-x="266" 
d="M244 99v-99h-223l146 508h-33c-28 -1 -60 -26 -80 -67h-9l8 93h192l-145 -503c60 0 110 16 134 68h10z" />
    <glyph glyph-name="exclamdown" unicode="&#xa1;" horiz-adv-x="150" 
d="M119 -27c0 -24 -20 -44 -44 -44s-44 20 -44 44v244l29 255h30l29 -255v-244zM119 601v-55c0 -24 -20 -44 -44 -44s-44 20 -44 44v55c0 24 20 44 44 44s44 -20 44 -44z" />
    <glyph glyph-name="cent" unicode="&#xa2;" 
d="M223 192v-117c0 -42 -37 -78 -85 -84v-57h-32v57c-48 6 -85 42 -85 84v384c0 42 37 78 85 84v57h32v-57c48 -6 85 -42 85 -84v-98h-69v117c0 22 -12 39 -32 39s-32 -17 -32 -39v-422c0 -22 12 -39 32 -39s32 17 32 39v136h69z" />
    <glyph glyph-name="sterling" unicode="&#xa3;" horiz-adv-x="290" 
d="M111 638v-304h75v-46h-75v-232h91c29 0 46 40 46 72h11v-128h-228v288h-21v46h21v277c0 47 46 86 102 86s102 -39 102 -86v-111h-66v138c0 19 -13 34 -29 34s-29 -15 -29 -34z" />
    <glyph glyph-name="guillemotleft" unicode="&#xab;" horiz-adv-x="200" 
d="M140 266l29 -201h-11l-57 201l57 200h11zM70 266l29 -201h-11l-57 201l57 200h11z" />
    <glyph glyph-name="cedilla" unicode="&#xb8;" horiz-adv-x="197" 
d="M72 -4h17v-39s8 2 12 2c22 0 32 -14 32 -45c0 -34 -15 -51 -41 -51c-11 0 -28 5 -28 5v15s11 -2 15 -2c14 0 19 8 19 29c0 22 -4 30 -15 30c-3 0 -11 -3 -11 -3v59z" />
    <glyph glyph-name="guillemotright" unicode="&#xbb;" horiz-adv-x="200" 
d="M60 266l-29 200h11l57 -200l-57 -201h-11zM130 266l-29 200h11l57 -200l-57 -201h-11z" />
    <glyph glyph-name="questiondown" unicode="&#xbf;" horiz-adv-x="266" 
d="M175 603v-55c0 -24 -20 -44 -44 -44s-44 20 -44 44v55c0 24 20 44 44 44s44 -20 44 -44zM102 114v-111c0 -23 11 -46 33 -46s33 23 33 46v101h67v-80c0 -57 -48 -93 -102 -93s-102 36 -102 93v124c0 61 77 166 80 215v106h40v-114c0 -32 -48 -192 -49 -241zM235 104z" />
    <glyph glyph-name="Agrave" unicode="&#xc0;" horiz-adv-x="287" 
d="M159 714h-18l-26 100h39zM70 46c0 -11 6 -41 17 -41v-5h-77v5c7 0 22 29 25 46l96 646h46l78 -646c3 -18 12 -46 22 -46v-5h-111v5c8 0 16 19 16 33l-17 149h-75zM94 219h67l-30 260z" />
    <glyph glyph-name="Aacute" unicode="&#xc1;" horiz-adv-x="287" 
d="M178 814l-26 -100h-17l4 100h39zM70 46c0 -11 6 -41 17 -41v-5h-77v5c7 0 22 29 25 46l96 646h46l78 -646c3 -18 12 -46 22 -46v-5h-111v5c8 0 16 19 16 33l-17 149h-75zM94 219h67l-30 260z" />
    <glyph glyph-name="Acircumflex" unicode="&#xc2;" horiz-adv-x="287" 
d="M132 815h44l33 -101h-13l-42 60l-42 -60h-13zM70 46c0 -11 6 -41 17 -41v-5h-77v5c7 0 22 29 25 46l96 646h46l78 -646c3 -18 12 -46 22 -46v-5h-111v5c8 0 16 19 16 33l-17 149h-75zM94 219h67l-30 260z" />
    <glyph glyph-name="Atilde" unicode="&#xc3;" horiz-adv-x="287" 
d="M92 730c0 8.95703 -0.540039 18.7158 -0.540039 28c0 21.8125 2.89941 41 22.54 41c27 0 52 -30 68 -30c9 0 10 16 10 28h10s2 -22 2 -36s-5 -31 -19 -31c-30 0 -52 29 -71 29c-7.07129 0 -11 -5 -11 -29h-11zM70 46c0 -11 6 -41 17 -41v-5h-77v5c7 0 22 29 25 46l96 646
h46l78 -646c3 -18 12 -46 22 -46v-5h-111v5c8 0 16 19 16 33l-17 149h-75zM94 219h67l-30 260z" />
    <glyph glyph-name="Adieresis" unicode="&#xc4;" horiz-adv-x="287" 
d="M197 799v-82h-32v82h32zM138 799v-82h-33v82h33zM70 46c0 -11 6 -41 17 -41v-5h-77v5c7 0 22 29 25 46l96 646h46l78 -646c3 -18 12 -46 22 -46v-5h-111v5c8 0 16 19 16 33l-17 149h-75zM94 219h67l-30 260z" />
    <glyph glyph-name="Aring" unicode="&#xc5;" horiz-adv-x="287" 
d="M154 814c28 0 50 -22 50 -50s-22 -50 -50 -50c-27 0 -50 22 -50 50s23 50 50 50zM154 744c11 0 21 9 21 20c0 12 -9 20 -21 20c-11 0 -20 -9 -20 -20s9 -20 20 -20zM70 46c0 -11 6 -41 17 -41v-5h-77v5c7 0 22 29 25 46l96 646h46l78 -646c3 -18 12 -46 22 -46v-5h-111v5
c8 0 16 19 16 33l-17 149h-75zM94 219h67l-30 260z" />
    <glyph glyph-name="AE" unicode="&#xc6;" horiz-adv-x="402" 
d="M155 641c0 34 -9 51 -21 51v5h241v-121h-13c0 45 -52 96 -105 96v-268h64c14 0 25 11 25 25h4v-88h-4c0 14 -11 25 -25 25h-64v-342c62 0 111 52 111 102h13v-126h-217v5c12 0 21 17 21 51v131h-87l-27 -141c-0.607422 -2.42969 -0.960938 -5.55762 -0.960938 -9
c0 -13.5566 4.18848 -32 12.9609 -32v-5h-73v5c9 0.142578 25 29 28 46zM106 219h79v400z" />
    <glyph glyph-name="Ccedilla" unicode="&#xc7;" horiz-adv-x="273" 
d="M231 575c-16 46 -39 103 -87 103c-23 0 -43 -15 -44 -39v-550c0 -31 14 -67 45 -67c33 0 50 34 52 67v154h45v-158c-1 -55 -45 -93 -97 -97v-31s8 2 12 2c22 0 32 -14 32 -45c0 -34 -15 -51 -41 -51c-11 0 -28 5 -28 5v15s11 -2 15 -2c14 0 19 8 19 29c0 22 -4 30 -15 30
c-3 0 -11 -3 -11 -3v51c-66 3 -97 42 -97 97v525c0 60 59 96 119 96c35 0 54 -5 89 -9v-122h-8z" />
    <glyph glyph-name="Egrave" unicode="&#xc8;" horiz-adv-x="258" 
d="M145 714h-18l-26 100h39zM221 697v-121h-13c0 45 -52 96 -105 96v-268h64c14 0 25 11 25 25h4v-88h-4c0 14 -11 25 -25 25h-64v-342c62 0 111 52 111 102h13v-126h-217v5c12 0 21 17 21 51v585c0 34 -9 51 -21 51v5h211z" />
    <glyph glyph-name="Eacute" unicode="&#xc9;" horiz-adv-x="258" 
d="M141 814l-26 -100h-17l4 100h39zM221 697v-121h-13c0 45 -52 96 -105 96v-268h64c14 0 25 11 25 25h4v-88h-4c0 14 -11 25 -25 25h-64v-342c62 0 111 52 111 102h13v-126h-217v5c12 0 21 17 21 51v585c0 34 -9 51 -21 51v5h211z" />
    <glyph glyph-name="Ecircumflex" unicode="&#xca;" horiz-adv-x="258" 
d="M98 815h44l33 -101h-13l-42 60l-42 -60h-13zM221 697v-121h-13c0 45 -52 96 -105 96v-268h64c14 0 25 11 25 25h4v-88h-4c0 14 -11 25 -25 25h-64v-342c62 0 111 52 111 102h13v-126h-217v5c12 0 21 17 21 51v585c0 34 -9 51 -21 51v5h211z" />
    <glyph glyph-name="Edieresis" unicode="&#xcb;" horiz-adv-x="258" 
d="M164 799v-82h-32v82h32zM105 799v-82h-33v82h33zM221 697v-121h-13c0 45 -52 96 -105 96v-268h64c14 0 25 11 25 25h4v-88h-4c0 14 -11 25 -25 25h-64v-342c62 0 111 52 111 102h13v-126h-217v5c12 0 21 17 21 51v585c0 34 -9 51 -21 51v5h211z" />
    <glyph glyph-name="Igrave" unicode="&#xcc;" horiz-adv-x="134" 
d="M82 714h-18l-26 100h39zM31 641c0 34 -9 51 -21 51v5h114v-5c-12 0 -21 -17 -21 -51v-585c0 -34 9 -51 21 -51v-5h-114v5c12 0 21 17 21 51v585z" />
    <glyph glyph-name="Iacute" unicode="&#xcd;" horiz-adv-x="134" 
d="M97 814l-26 -100h-17l4 100h39zM31 641c0 34 -9 51 -21 51v5h114v-5c-12 0 -21 -17 -21 -51v-585c0 -34 9 -51 21 -51v-5h-114v5c12 0 21 17 21 51v585z" />
    <glyph glyph-name="Icircumflex" unicode="&#xce;" horiz-adv-x="134" 
d="M45 815h44l33 -101h-13l-42 60l-42 -60h-13zM31 641c0 34 -9 51 -21 51v5h114v-5c-12 0 -21 -17 -21 -51v-585c0 -34 9 -51 21 -51v-5h-114v5c12 0 21 17 21 51v585z" />
    <glyph glyph-name="Idieresis" unicode="&#xcf;" horiz-adv-x="134" 
d="M113 799v-82h-32v82h32zM54 799v-82h-33v82h33zM31 641c0 34 -9 51 -21 51v5h114v-5c-12 0 -21 -17 -21 -51v-585c0 -34 9 -51 21 -51v-5h-114v5c12 0 21 17 21 51v585z" />
    <glyph glyph-name="Ntilde" unicode="&#xd1;" horiz-adv-x="279" 
d="M92 726c0 8.95703 -0.540039 18.7158 -0.540039 28c0 21.8125 2.89941 41 22.54 41c27 0 52 -30 68 -30c9 0 10 16 10 28h10s2 -22 2 -36s-5 -31 -19 -31c-30 0 -52 29 -71 29c-7.07129 0 -11 -5 -11 -29h-11zM269 692c-12 0 -21 -17 -21 -51v-641h-47l-136 520v-464
c0 -34 9 -51 21 -51v-5h-75v5c12 0 21 17 21 51v593c0 21 -13 43 -22 43v5h114v-5c-5 0 -13 -11 -13 -20c0 -11 1 -21 3 -27l101 -364v360c0 34 -9 51 -21 51v5h75v-5z" />
    <glyph glyph-name="Ograve" unicode="&#xd2;" horiz-adv-x="280" 
d="M174 734h-18l-26 100h39zM177 635c0 23 -14 46 -37 46s-37 -23 -37 -46v-573c0 -23 14 -46 37 -46s37 23 37 46v573zM140 707c56 0 109 -36 109 -93v-531c0 -57 -53 -93 -109 -93s-109 36 -109 93v531c0 57 53 93 109 93z" />
    <glyph glyph-name="Oacute" unicode="&#xd3;" horiz-adv-x="280" 
d="M159 834l-26 -100h-17l4 100h39zM177 635c0 23 -14 46 -37 46s-37 -23 -37 -46v-573c0 -23 14 -46 37 -46s37 23 37 46v573zM140 707c56 0 109 -36 109 -93v-531c0 -57 -53 -93 -109 -93s-109 36 -109 93v531c0 57 53 93 109 93z" />
    <glyph glyph-name="Ocircumflex" unicode="&#xd4;" horiz-adv-x="280" 
d="M118 835h44l33 -101h-13l-42 60l-42 -60h-13zM177 635c0 23 -14 46 -37 46s-37 -23 -37 -46v-573c0 -23 14 -46 37 -46s37 23 37 46v573zM140 707c56 0 109 -36 109 -93v-531c0 -57 -53 -93 -109 -93s-109 36 -109 93v531c0 57 53 93 109 93z" />
    <glyph glyph-name="Otilde" unicode="&#xd5;" horiz-adv-x="280" 
d="M96 733c0 8.95703 -0.540039 18.7158 -0.540039 28c0 21.8125 2.89941 41 22.54 41c27 0 52 -30 68 -30c9 0 10 16 10 28h10s2 -22 2 -36s-5 -31 -19 -31c-30 0 -52 29 -71 29c-7.07129 0 -11 -5 -11 -29h-11zM177 635c0 23 -14 46 -37 46s-37 -23 -37 -46v-573
c0 -23 14 -46 37 -46s37 23 37 46v573zM140 707c56 0 109 -36 109 -93v-531c0 -57 -53 -93 -109 -93s-109 36 -109 93v531c0 57 53 93 109 93z" />
    <glyph glyph-name="Odieresis" unicode="&#xd6;" horiz-adv-x="280" 
d="M185 820v-82h-32v82h32zM126 820v-82h-33v82h33zM177 635c0 23 -14 46 -37 46s-37 -23 -37 -46v-573c0 -23 14 -46 37 -46s37 23 37 46v573zM140 707c56 0 109 -36 109 -93v-531c0 -57 -53 -93 -109 -93s-109 36 -109 93v531c0 57 53 93 109 93z" />
    <glyph glyph-name="Ugrave" unicode="&#xd9;" horiz-adv-x="330" 
d="M198 714h-18l-26 100h39zM299 697v-5c-12 0 -21 -17 -21 -51v-552c0 -51 -24 -99 -113 -99c-84 0 -113 38 -113 99v552c0 34 -9 51 -21 51v5h114v-5c-12 0 -21 -17 -21 -51v-552c1 -35 24 -61 57 -61s57 27 57 61v552c0 34 -9 51 -21 51v5h82z" />
    <glyph glyph-name="Uacute" unicode="&#xda;" horiz-adv-x="330" 
d="M199 814l-26 -100h-17l4 100h39zM299 697v-5c-12 0 -21 -17 -21 -51v-552c0 -51 -24 -99 -113 -99c-84 0 -113 38 -113 99v552c0 34 -9 51 -21 51v5h114v-5c-12 0 -21 -17 -21 -51v-552c1 -35 24 -61 57 -61s57 27 57 61v552c0 34 -9 51 -21 51v5h82z" />
    <glyph glyph-name="Ucircumflex" unicode="&#xdb;" horiz-adv-x="330" 
d="M153 815h44l33 -101h-13l-42 60l-42 -60h-13zM299 697v-5c-12 0 -21 -17 -21 -51v-552c0 -51 -24 -99 -113 -99c-84 0 -113 38 -113 99v552c0 34 -9 51 -21 51v5h114v-5c-12 0 -21 -17 -21 -51v-552c1 -35 24 -61 57 -61s57 27 57 61v552c0 34 -9 51 -21 51v5h82z" />
    <glyph glyph-name="Udieresis" unicode="&#xdc;" horiz-adv-x="330" 
d="M217 799v-82h-32v82h32zM158 799v-82h-33v82h33zM299 697v-5c-12 0 -21 -17 -21 -51v-552c0 -51 -24 -99 -113 -99c-84 0 -113 38 -113 99v552c0 34 -9 51 -21 51v5h114v-5c-12 0 -21 -17 -21 -51v-552c1 -35 24 -61 57 -61s57 27 57 61v552c0 34 -9 51 -21 51v5h82z" />
    <glyph glyph-name="Yacute" unicode="&#xdd;" horiz-adv-x="287" 
d="M179 814l-26 -100h-17l4 100h39zM216 625c2.07617 9.67578 2.95801 18.7031 2.95801 27.002c0 34 -21.0996 40 -30.958 40v5h89v-5c-17 0 -20 -18 -29 -51l-71 -273v-312c0 -34 9 -51 21 -51v-5h-114v5c12 0 21 17 21 51v312l-68 268c-8 33 -18 56 -27 56v5h114v-5
c-9.44434 0 -20.9219 -16.1055 -20.9219 -39.001c0 -6.19629 0.719727 -12.8896 2.55957 -19.8955l59.3623 -234.105z" />
    <glyph glyph-name="agrave" unicode="&#xe0;" 
d="M141 597h-18l-26 100h39zM149 349c-38 -17 -62 -45 -63 -81v-214c0 -20 19 -33 40 -33h23v328zM149 381v100c0 21 -11 39 -30 39s-29 -18 -29 -39v-65h-64v59c0 46 48 68 93 68s94 -22 94 -68v-419c0 -34 9 -51 21 -51v-5h-155c-33 0 -58 32 -58 66v193
c0 64 72 102 128 122z" />
    <glyph glyph-name="aacute" unicode="&#xe1;" 
d="M141 695l-26 -100h-17l4 100h39zM149 349c-38 -17 -62 -45 -63 -81v-214c0 -20 19 -33 40 -33h23v328zM149 381v100c0 21 -11 39 -30 39s-29 -18 -29 -39v-65h-64v59c0 46 48 68 93 68s94 -22 94 -68v-419c0 -34 9 -51 21 -51v-5h-155c-33 0 -58 32 -58 66v193
c0 64 72 102 128 122z" />
    <glyph glyph-name="acircumflex" unicode="&#xe2;" 
d="M98 697h44l33 -101h-13l-42 60l-42 -60h-13zM149 349c-38 -17 -62 -45 -63 -81v-214c0 -20 19 -33 40 -33h23v328zM149 381v100c0 21 -11 39 -30 39s-29 -18 -29 -39v-65h-64v59c0 46 48 68 93 68s94 -22 94 -68v-419c0 -34 9 -51 21 -51v-5h-155c-33 0 -58 32 -58 66
v193c0 64 72 102 128 122z" />
    <glyph glyph-name="atilde" unicode="&#xe3;" 
d="M68 614c0 8.95703 -0.540039 18.7158 -0.540039 28c0 21.8125 2.89941 41 22.54 41c27 0 52 -30 68 -30c9 0 10 16 10 28h10s2 -22 2 -36s-5 -31 -19 -31c-30 0 -52 29 -71 29c-7.07129 0 -11 -5 -11 -29h-11zM149 349c-38 -17 -62 -45 -63 -81v-214c0 -20 19 -33 40 -33
h23v328zM149 381v100c0 21 -11 39 -30 39s-29 -18 -29 -39v-65h-64v59c0 46 48 68 93 68s94 -22 94 -68v-419c0 -34 9 -51 21 -51v-5h-155c-33 0 -58 32 -58 66v193c0 64 72 102 128 122z" />
    <glyph glyph-name="adieresis" unicode="&#xe4;" 
d="M164 696v-82h-32v82h32zM105 696v-82h-33v82h33zM149 349c-38 -17 -62 -45 -63 -81v-214c0 -20 19 -33 40 -33h23v328zM149 381v100c0 21 -11 39 -30 39s-29 -18 -29 -39v-65h-64v59c0 46 48 68 93 68s94 -22 94 -68v-419c0 -34 9 -51 21 -51v-5h-155
c-33 0 -58 32 -58 66v193c0 64 72 102 128 122z" />
    <glyph glyph-name="aring" unicode="&#xe5;" 
d="M119 697c28 0 50 -22 50 -50s-22 -50 -50 -50c-27 0 -50 22 -50 50s23 50 50 50zM119 627c11 0 21 9 21 20c0 12 -9 20 -21 20c-11 0 -20 -9 -20 -20s9 -20 20 -20zM149 349c-38 -17 -62 -45 -63 -81v-214c0 -20 19 -33 40 -33h23v328zM149 381v100c0 21 -11 39 -30 39
s-29 -18 -29 -39v-65h-64v59c0 46 48 68 93 68s94 -22 94 -68v-419c0 -34 9 -51 21 -51v-5h-155c-33 0 -58 32 -58 66v193c0 64 72 102 128 122z" />
    <glyph glyph-name="ae" unicode="&#xe6;" horiz-adv-x="370" 
d="M185 9c-18 -12 -40 -19 -64 -19c-52 0 -100 32 -100 88v181c0 64 72 102 128 122v100c0 21 -11 39 -30 39s-29 -18 -29 -39v-65h-64v59c0 46 48 68 93 68c23 0 48 -6 66 -18c18 12 40 19 64 19c52 0 100 -32 100 -88v-193h-132v-207c0 -22 12 -39 32 -39s32 17 32 39v116
h68v-94c0 -56 -48 -88 -100 -88c-24 0 -46 7 -64 19zM149 349c-38 -17 -62 -45 -63 -81v-212c0 -22 12 -39 32 -39c19 0 31 17 31 39v293zM281 478c0 22 -12 39 -32 39s-32 -17 -32 -39v-181h64v181z" />
    <glyph glyph-name="ccedilla" unicode="&#xe7;" 
d="M223 192v-117c0 -44 -40 -81 -92 -85v-33s8 2 12 2c22 0 32 -14 32 -45c0 -34 -15 -51 -41 -51c-11 0 -28 5 -28 5v15s11 -2 15 -2c14 0 19 8 19 29c0 22 -4 30 -15 30c-3 0 -11 -3 -11 -3v53c-52 3 -93 40 -93 85v384c0 47 45 85 101 85s101 -38 101 -85v-98h-69v117
c0 22 -12 39 -32 39s-32 -17 -32 -39v-422c0 -22 12 -39 32 -39s32 17 32 39v136h69z" />
    <glyph glyph-name="egrave" unicode="&#xe8;" horiz-adv-x="242" 
d="M141 597h-18l-26 100h39zM153 478c0 22 -12 39 -32 39s-32 -17 -32 -39v-181h64v181zM89 263v-207c0 -22 12 -39 32 -39s32 17 32 39v116h68v-94c0 -56 -48 -88 -100 -88s-100 32 -100 88v378c0 56 48 88 100 88s100 -32 100 -88v-193h-132z" />
    <glyph glyph-name="eacute" unicode="&#xe9;" horiz-adv-x="242" 
d="M141 695l-26 -100h-17l4 100h39zM153 478c0 22 -12 39 -32 39s-32 -17 -32 -39v-181h64v181zM89 263v-207c0 -22 12 -39 32 -39s32 17 32 39v116h68v-94c0 -56 -48 -88 -100 -88s-100 32 -100 88v378c0 56 48 88 100 88s100 -32 100 -88v-193h-132z" />
    <glyph glyph-name="ecircumflex" unicode="&#xea;" horiz-adv-x="242" 
d="M99 697h44l33 -101h-13l-42 60l-42 -60h-13zM153 478c0 22 -12 39 -32 39s-32 -17 -32 -39v-181h64v181zM89 263v-207c0 -22 12 -39 32 -39s32 17 32 39v116h68v-94c0 -56 -48 -88 -100 -88s-100 32 -100 88v378c0 56 48 88 100 88s100 -32 100 -88v-193h-132z" />
    <glyph glyph-name="edieresis" unicode="&#xeb;" horiz-adv-x="242" 
d="M166 696v-82h-32v82h32zM107 696v-82h-33v82h33zM153 478c0 22 -12 39 -32 39s-32 -17 -32 -39v-181h64v181zM89 263v-207c0 -22 12 -39 32 -39s32 17 32 39v116h68v-94c0 -56 -48 -88 -100 -88s-100 32 -100 88v378c0 56 48 88 100 88s100 -32 100 -88v-193h-132z" />
    <glyph glyph-name="igrave" unicode="&#xec;" horiz-adv-x="126" 
d="M77 597h-18l-26 100h39zM95 534v-478c0 -34 9 -51 21 -51v-5h-106v5c12 0 21 17 21 51v422c0 34 -9 51 -21 51v5h85z" />
    <glyph glyph-name="iacute" unicode="&#xed;" horiz-adv-x="126" 
d="M82 695l-26 -100h-17l4 100h39zM95 534v-478c0 -34 9 -51 21 -51v-5h-106v5c12 0 21 17 21 51v422c0 34 -9 51 -21 51v5h85z" />
    <glyph glyph-name="icircumflex" unicode="&#xee;" horiz-adv-x="126" 
d="M41 697h44l33 -101h-13l-42 60l-42 -60h-13zM95 534v-478c0 -34 9 -51 21 -51v-5h-106v5c12 0 21 17 21 51v422c0 34 -9 51 -21 51v5h85z" />
    <glyph glyph-name="idieresis" unicode="&#xef;" horiz-adv-x="126" 
d="M109 696v-82h-32v82h32zM50 696v-82h-33v82h33zM95 534v-478c0 -34 9 -51 21 -51v-5h-106v5c12 0 21 17 21 51v422c0 34 -9 51 -21 51v5h85z" />
    <glyph glyph-name="ntilde" unicode="&#xf1;" horiz-adv-x="254" 
d="M57 598c0 8.95703 -0.540039 18.7158 -0.540039 28c0 21.8125 2.89941 41 22.54 41c27 0 52 -30 68 -30c9 0 10 16 10 28h10s2 -22 2 -36s-5 -31 -19 -31c-30 0 -52 29 -71 29c-7.07129 0 -11 -5 -11 -29h-11zM10 534h138c38 0 75 -30 75 -68v-410c0 -34 9 -51 21 -51v-5
h-106v5c12 0 21 17 21 51v415c0 25 -19 38 -44 38h-20v-453c0 -34 9 -51 21 -51v-5h-106v5c12 0 21 17 21 51v422c0 34 -9 51 -21 51v5z" />
    <glyph glyph-name="ograve" unicode="&#xf2;" 
d="M141 597h-18l-26 100h39zM154 478c0 22 -12 39 -32 39s-32 -17 -32 -39v-422c0 -22 12 -39 32 -39s32 17 32 39v422zM21 75v384c0 47 45 85 101 85s101 -38 101 -85v-384c0 -47 -45 -85 -101 -85s-101 38 -101 85z" />
    <glyph glyph-name="oacute" unicode="&#xf3;" 
d="M141 695l-26 -100h-17l4 100h39zM154 478c0 22 -12 39 -32 39s-32 -17 -32 -39v-422c0 -22 12 -39 32 -39s32 17 32 39v422zM21 75v384c0 47 45 85 101 85s101 -38 101 -85v-384c0 -47 -45 -85 -101 -85s-101 38 -101 85z" />
    <glyph glyph-name="ocircumflex" unicode="&#xf4;" 
d="M100 697h44l33 -101h-13l-42 60l-42 -60h-13zM154 478c0 22 -12 39 -32 39s-32 -17 -32 -39v-422c0 -22 12 -39 32 -39s32 17 32 39v422zM21 75v384c0 47 45 85 101 85s101 -38 101 -85v-384c0 -47 -45 -85 -101 -85s-101 38 -101 85z" />
    <glyph glyph-name="otilde" unicode="&#xf5;" 
d="M68 614c0 8.95703 -0.540039 18.7158 -0.540039 28c0 21.8125 2.89941 41 22.54 41c27 0 52 -30 68 -30c9 0 10 16 10 28h10s2 -22 2 -36s-5 -31 -19 -31c-30 0 -52 29 -71 29c-7.07129 0 -11 -5 -11 -29h-11zM154 478c0 22 -12 39 -32 39s-32 -17 -32 -39v-422
c0 -22 12 -39 32 -39s32 17 32 39v422zM21 75v384c0 47 45 85 101 85s101 -38 101 -85v-384c0 -47 -45 -85 -101 -85s-101 38 -101 85z" />
    <glyph glyph-name="odieresis" unicode="&#xf6;" 
d="M168 696v-82h-32v82h32zM109 696v-82h-33v82h33zM154 478c0 22 -12 39 -32 39s-32 -17 -32 -39v-422c0 -22 12 -39 32 -39s32 17 32 39v422zM21 75v384c0 47 45 85 101 85s101 -38 101 -85v-384c0 -47 -45 -85 -101 -85s-101 38 -101 85z" />
    <glyph glyph-name="ugrave" unicode="&#xf9;" horiz-adv-x="254" 
d="M141 597h-18l-26 100h39zM223 534v-478c0 -34 9 -51 21 -51v-5h-138c-38 0 -75 30 -75 68v410c0 34 -9 51 -21 51v5h85v-471c0 -25 19 -38 44 -38h20v453c0 34 -9 51 -21 51v5h85z" />
    <glyph glyph-name="uacute" unicode="&#xfa;" horiz-adv-x="254" 
d="M141 695l-26 -100h-17l4 100h39zM223 534v-478c0 -34 9 -51 21 -51v-5h-138c-38 0 -75 30 -75 68v410c0 34 -9 51 -21 51v5h85v-471c0 -25 19 -38 44 -38h20v453c0 34 -9 51 -21 51v5h85z" />
    <glyph glyph-name="ucircumflex" unicode="&#xfb;" horiz-adv-x="254" 
d="M103 697h44l33 -101h-13l-42 60l-42 -60h-13zM223 534v-478c0 -34 9 -51 21 -51v-5h-138c-38 0 -75 30 -75 68v410c0 34 -9 51 -21 51v5h85v-471c0 -25 19 -38 44 -38h20v453c0 34 -9 51 -21 51v5h85z" />
    <glyph glyph-name="udieresis" unicode="&#xfc;" horiz-adv-x="254" 
d="M168 696v-82h-32v82h32zM109 696v-82h-33v82h33zM223 534v-478c0 -34 9 -51 21 -51v-5h-138c-38 0 -75 30 -75 68v410c0 34 -9 51 -21 51v5h85v-471c0 -25 19 -38 44 -38h20v453c0 34 -9 51 -21 51v5h85z" />
    <glyph glyph-name="yacute" unicode="&#xfd;" horiz-adv-x="273" 
d="M175 695l-26 -100h-17l4 100h39zM117 0l-87 500c-3 20 -11 29 -20 29v5h114v-5c-10 0 -22 -13 -22 -37c0 -5 1 -10 2 -15l51 -294l51 293c1 6 1 11 1 16c0 24 -6 37 -16 37v5h72v-5c-9 0 -14 -9 -17 -28l-99 -603c-7 -42 -21.9893 -70 -69 -70c-32 0 -57 15 -57 49v30h44
v-27c0 -12 4 -26 23 -26c26 0 35 59 35 103z" />
    <glyph glyph-name="ydieresis" unicode="&#xff;" horiz-adv-x="273" 
d="M194 696v-82h-32v82h32zM135 696v-82h-33v82h33zM117 0l-87 500c-3 20 -11 29 -20 29v5h114v-5c-10 0 -22 -13 -22 -37c0 -5 1 -10 2 -15l51 -294l51 293c1 6 1 11 1 16c0 24 -6 37 -16 37v5h72v-5c-9 0 -14 -9 -17 -28l-99 -603c-7 -42 -21.9893 -70 -69 -70
c-32 0 -57 15 -57 49v30h44v-27c0 -12 4 -26 23 -26c26 0 35 59 35 103z" />
    <glyph glyph-name="OE" unicode="&#x152;" horiz-adv-x="404" 
d="M367 697v-121h-13c0 45 -52 96 -105 96v-58v-210h64c14 0 25 11 25 25h4v-88h-4c0 14 -11 25 -25 25h-64v-283v-59c62 0 111 52 111 102h13v-126h-183c-15 -7 -33 -10 -50 -10c-56 0 -109 36 -109 93v531c0 57 53 93 109 93c17 0 35 -3 50 -10h177zM177 62v573
c0 23 -14 46 -37 46s-37 -23 -37 -46v-573c0 -23 14 -46 37 -46s37 23 37 46z" />
    <glyph glyph-name="oe" unicode="&#x153;" horiz-adv-x="376" 
d="M21 75v384c0 47 45 85 101 85c25 0 48 -8 66 -21c18 14 42 21 67 21c52 0 100 -32 100 -88v-193h-132v-188v-19c0 -22 12 -39 32 -39s32 17 32 39v116h68v-94c0 -56 -48 -88 -100 -88c-25 0 -49 7 -67 21c-18 -13 -41 -21 -66 -21c-56 0 -101 38 -101 85zM154 478
c0 22 -12 39 -32 39s-32 -17 -32 -39v-422c0 -22 12 -39 32 -39s32 17 32 39v422zM287 478c0 22 -12 39 -32 39s-32 -17 -32 -39v-19v-162h64v181z" />
  </font>
</defs>
</svg>
